<?xml version="1.0" standalone="no"?>
<!DOCTYPE svg PUBLIC "-//W3C//DTD SVG 20010904//EN"
 "http://www.w3.org/TR/2001/REC-SVG-20010904/DTD/svg10.dtd">
<svg version="1.0" xmlns="http://www.w3.org/2000/svg"
 width="1802.000000pt" height="1802.000000pt" viewBox="0 0 1802.000000 1802.000000"
 preserveAspectRatio="xMidYMid meet">
<metadata>
Created by potrace 1.11, written by Peter Selinger 2001-2013
</metadata>
<g transform="translate(0.000000,1802.000000) scale(0.100000,-0.100000)"
fill="#000000" stroke="none">
<path d="M9246 16543 c-1 -1 -499 -3 -1106 -3 -978 -1 -1109 -3 -1138 -17 -36
-17 -47 -35 -92 -149 -17 -44 -37 -92 -45 -109 -7 -16 -79 -196 -160 -400 -81
-203 -229 -577 -330 -830 -261 -656 -394 -992 -582 -1465 -90 -228 -168 -424
-173 -435 -5 -11 -48 -119 -96 -240 -109 -278 -205 -521 -438 -1108 -102 -257
-186 -470 -186 -472 0 -3 -9 -24 -19 -48 -11 -23 -54 -130 -96 -237 -43 -107
-83 -208 -90 -225 -7 -16 -41 -102 -75 -190 -35 -88 -71 -179 -81 -202 -11
-23 -19 -46 -19 -51 0 -5 -6 -22 -14 -38 -8 -16 -73 -180 -146 -364 -73 -184
-138 -348 -145 -365 -7 -16 -51 -127 -98 -245 -47 -118 -156 -393 -242 -610
-86 -217 -168 -424 -182 -460 -25 -65 -35 -89 -68 -166 l-17 -41 -947 0
c-1035 0 -997 2 -1104 -59 -49 -27 -118 -99 -144 -147 -8 -16 -91 -221 -184
-455 -93 -235 -174 -436 -179 -447 -10 -22 -254 -637 -256 -645 0 -3 -5 -16
-11 -30 -6 -14 -27 -65 -46 -115 -81 -207 -278 -701 -287 -720 -5 -11 -16 -38
-24 -60 -18 -53 -233 -591 -251 -632 -8 -17 -15 -37 -15 -45 0 -8 -4 -18 -8
-23 -5 -6 -15 -26 -22 -45 -7 -19 -19 -48 -25 -65 -98 -237 -103 -254 -88
-298 15 -42 70 -201 143 -412 21 -60 63 -182 94 -270 30 -88 93 -272 141 -410
48 -137 95 -275 105 -305 10 -30 75 -219 145 -420 69 -201 144 -419 166 -485
23 -66 44 -129 49 -140 9 -24 16 -43 70 -200 23 -66 46 -132 51 -147 l11 -26
2015 1 2015 2 23 55 c12 30 147 370 300 755 152 385 283 715 291 732 8 18 21
50 28 70 8 21 20 52 27 68 7 17 13 32 14 35 1 3 5 14 10 25 19 47 231 582 325
820 57 143 106 264 111 269 4 5 25 11 46 14 21 2 1220 6 2665 7 2585 3 2627 4
2671 23 69 31 110 95 109 172 -1 25 -133 367 -397 1026 -218 544 -400 998
-405 1009 -5 11 -86 214 -180 450 -155 388 -207 519 -246 610 -7 17 -20 50
-29 75 -20 54 -28 74 -48 120 -8 19 -28 67 -43 105 -36 90 -50 112 -88 133
-29 16 -130 17 -1298 22 l-1267 5 29 70 c16 39 106 264 200 500 94 237 174
439 179 450 5 11 21 52 36 90 15 39 33 84 40 100 7 17 110 273 228 570 495
1244 909 2282 922 2312 8 17 15 37 15 45 0 8 4 18 8 23 5 6 23 48 41 95 18 47
39 99 46 115 7 17 41 101 75 187 l62 158 2091 2 c2074 3 2092 3 2119 23 15 11
30 27 32 35 20 60 15 80 -57 257 -97 236 -257 626 -412 1008 -69 171 -130 319
-135 330 -5 11 -45 108 -88 215 -147 363 -165 405 -183 447 -11 24 -19 45 -19
48 0 3 -8 24 -19 48 -36 80 -91 215 -91 222 0 4 -7 22 -15 41 -33 75 -48 110
-165 399 -67 165 -128 313 -136 329 -8 16 -14 33 -14 37 0 5 -11 32 -23 61
-13 29 -34 80 -47 113 -29 73 -46 98 -85 122 -29 17 -93 18 -1528 18 -824 0
-1500 -1 -1501 -2z"/>
<path d="M10380 11598 c-88 -25 -157 -127 -146 -217 3 -25 23 -92 46 -149 169
-431 370 -949 370 -955 0 -4 9 -26 19 -50 16 -34 235 -594 301 -767 17 -46 99
-255 263 -675 49 -126 99 -257 112 -290 26 -68 210 -541 290 -745 29 -74 92
-236 140 -360 48 -124 128 -328 177 -455 50 -126 100 -257 113 -290 56 -150
537 -1384 551 -1415 9 -19 18 -42 20 -50 2 -8 57 -152 123 -320 65 -168 328
-843 584 -1500 568 -1461 519 -1334 612 -1575 43 -110 88 -215 102 -233 13
-18 45 -43 71 -56 l47 -24 1845 2 1845 1 42 24 c50 29 89 80 101 136 15 70 28
32 -214 655 -36 91 -69 174 -74 185 -5 11 -32 81 -61 155 -28 74 -74 194 -101
265 -28 72 -65 168 -84 215 -110 286 -306 788 -314 805 -5 11 -54 137 -109
280 -55 143 -143 370 -196 505 -52 135 -116 299 -141 365 -25 66 -50 129 -55
140 -13 31 -110 279 -113 290 -1 6 -10 27 -19 49 -9 21 -17 40 -17 43 0 2 -36
97 -81 211 -45 114 -96 245 -114 292 -18 47 -58 148 -88 225 -30 77 -87 223
-126 325 -67 173 -133 342 -236 605 -23 61 -70 182 -104 270 -35 88 -82 210
-106 270 -23 61 -69 178 -100 260 -32 83 -64 164 -71 180 -7 17 -51 129 -97
250 -47 121 -90 231 -96 245 -6 14 -57 147 -115 295 -57 149 -124 322 -149
385 -25 63 -151 387 -280 720 -129 333 -267 688 -307 790 -40 102 -96 246
-125 320 -28 74 -64 167 -79 205 -31 80 -54 110 -111 145 l-40 25 -1835 1
c-1144 1 -1848 -2 -1870 -8z"/>
</g>
</svg>
