<?xml version="1.0" standalone="no"?>
<!DOCTYPE svg PUBLIC "-//W3C//DTD SVG 20010904//EN"
 "http://www.w3.org/TR/2001/REC-SVG-20010904/DTD/svg10.dtd">
<svg version="1.0" xmlns="http://www.w3.org/2000/svg"
 width="115.000000pt" height="115.000000pt" viewBox="0 0 115.000000 115.000000"
 preserveAspectRatio="xMidYMid meet">
<metadata>
Created by potrace 1.11, written by Peter Selinger 2001-2013
</metadata>
<g transform="translate(0.000000,115.000000) scale(0.100000,-0.100000)"
fill="#000000" stroke="none">
<path d="M660 1139 c-77 -10 -126 -27 -196 -70 -123 -73 -191 -177 -208 -317
-7 -62 13 -171 43 -230 l20 -40 -34 -78 c-40 -94 -74 -218 -80 -293 -4 -48 -1
-56 23 -81 22 -21 35 -26 64 -24 46 4 84 28 104 65 8 16 14 31 13 34 -3 13 44
185 54 199 11 14 19 13 77 -11 176 -72 349 -25 420 113 34 67 35 179 2 242
-51 97 -137 147 -252 146 -62 0 -84 -5 -130 -28 -30 -15 -68 -41 -85 -58 l-30
-31 -3 33 c-12 120 134 239 279 227 56 -5 98 -21 151 -58 42 -30 94 -25 129
12 55 59 29 135 -63 189 -92 53 -190 72 -298 59z m104 -565 c9 -8 16 -28 16
-44 0 -55 -71 -71 -167 -39 l-35 11 24 25 c54 59 129 81 162 47z"/>
<path d="M129 1111 c-28 -28 -33 -46 -31 -100 2 -30 28 -60 68 -77 98 -41 182
67 124 161 -34 55 -114 63 -161 16z"/>
</g>
</svg>
