<svg xmlns="http://www.w3.org/2000/svg" width="30.938" height="20" viewBox="0 0 30.938 20"><defs><style>.a{opacity:0.64;}.b,.c{fill:#201f60;}.b{opacity:0.4;}</style></defs><g class="a" transform="translate(12 -72)"><path class="b" d="M1.1,228.146H29.833a1.072,1.072,0,0,0,1.1-1.036v-2.073a1.072,1.072,0,0,0-1.1-1.036H1.1A1.072,1.072,0,0,0,0,225.036v2.073A1.072,1.072,0,0,0,1.1,228.146Z" transform="translate(-12 -143.803)"/><path class="c" d="M29.833,79.58H1.1a1.1,1.1,0,0,0-1.1,1.1V82.9A1.1,1.1,0,0,0,1.1,84H29.833a1.1,1.1,0,0,0,1.1-1.1v-2.21A1.1,1.1,0,0,0,29.833,79.58Zm0-15.58H1.1A1.1,1.1,0,0,0,0,65.1v2.21a1.1,1.1,0,0,0,1.1,1.1H29.833a1.1,1.1,0,0,0,1.1-1.1V65.1A1.1,1.1,0,0,0,29.833,64Z" transform="translate(-12 8)"/></g></svg>