<svg xmlns="http://www.w3.org/2000/svg" width="29.02" height="19.955" viewBox="0 0 29.02 19.955"><defs><style>.a,.b{fill:#fff;}.a{opacity:0.4;}</style></defs><g transform="translate(12 -72)"><path class="a" d="M1.036,233.15H27.984c.572,0,1.036-.024,1.036-1.288v-6.575c0-1.263-.464-1.288-1.036-1.288H1.036C.464,224,0,224.024,0,225.288v6.575C0,233.126.464,233.15,1.036,233.15Z" transform="translate(-12 -141.195)"/><path class="b" d="M27.984,64H1.036C.464,64,0,64.024,0,65.288v6.575c0,1.263.464,1.288,1.036,1.288H27.984c.572,0,1.036-.024,1.036-1.288V65.288C29.02,64.024,28.556,64,27.984,64Z" transform="translate(-12 8)"/></g></svg>