<svg height="512pt" viewBox="-80 0 512 512" width="512pt" xmlns="http://www.w3.org/2000/svg"><path d="m296.164062 0h-241c-30.417968 0-55.164062 24.746094-55.164062 55.167969v401.664062c0 30.421875 24.746094 55.167969 55.164062 55.167969h241c30.421876 0 55.167969-24.746094 55.167969-55.167969v-401.664062c0-30.421875-24.746093-55.167969-55.167969-55.167969zm-135.5 190.667969v50.332031h-50.332031v-50.332031zm80.335938 0v50.332031h-50.335938v-50.332031zm80.332031 0v50.332031h-50.332031v-50.332031zm-211 80.332031h50.332031v50.332031h-50.332031zm-30 50.332031h-50.332031v-50.332031h50.332031zm0-80.332031h-50.332031v-50.332031h50.332031zm-50.332031 110.332031h50.332031v50.335938h-50.332031zm80.332031 0h50.332031v50.335938h-50.332031zm50.332031 80.335938v50.332031h-50.332031v-50.332031zm30 0h50.335938v50.332031h-50.335938zm50.335938-30h-50.335938v-50.335938h50.335938zm-50.335938-80.335938v-50.332031h50.335938v50.332031zm80.335938-50.332031h50.332031v50.332031h-50.332031zm-215.835938-241h241c13.878907 0 25.167969 11.289062 25.167969 25.167969v105.5h-291.332031v-105.5c0-13.878907 11.289062-25.167969 25.164062-25.167969zm-25.164062 426.832031v-25.164062h50.332031v50.332031h-25.167969c-13.875 0-25.164062-11.289062-25.164062-25.167969zm266.164062 25.167969h-25.164062v-130.667969h50.332031v105.5c0 13.878907-11.289062 25.167969-25.167969 25.167969zm0 0"/></svg>