<?xml version="1.0" encoding="iso-8859-1"?>
<!-- Generator: Adobe Illustrator 16.0.0, SVG Export Plug-In . SVG Version: 6.00 Build 0)  -->
<!DOCTYPE svg PUBLIC "-//W3C//DTD SVG 1.1//EN" "http://www.w3.org/Graphics/SVG/1.1/DTD/svg11.dtd">
<svg version="1.1" id="Capa_1" xmlns="http://www.w3.org/2000/svg" xmlns:xlink="http://www.w3.org/1999/xlink" x="0px" y="0px"
	 width="165.759px" height="165.759px" viewBox="0 0 165.759 165.759" style="enable-background:new 0 0 165.759 165.759;"
	 xml:space="preserve">
<g>
	<path d="M108.338,57.594V23.899c0-0.457-0.122-0.886-0.286-1.278C106.633,9.925,95.953,0,82.879,0
		c-13.07,0-23.751,9.931-25.172,22.621c-0.167,0.387-0.287,0.815-0.287,1.278v33.694c-5.361,1.392-9.353,6.229-9.353,12.029v83.659
		c0,6.887,5.587,12.47,12.471,12.47s12.47-5.583,12.47-12.47V69.629c0-5.806-3.991-10.638-9.353-12.029V41.963
		c4.671,5.438,11.518,8.96,19.224,8.96c7.703,0,14.553-3.517,19.224-8.96V57.6c-5.358,1.391-9.354,6.229-9.354,12.029v83.659
		c0,6.881,5.59,12.471,12.471,12.471s12.471-5.59,12.471-12.471V69.629C117.691,63.817,113.697,58.985,108.338,57.594z
		 M82.879,44.688c-10.601,0-19.224-8.623-19.224-19.223c0-10.602,8.623-19.23,19.224-19.23c10.602,0,19.224,8.623,19.224,19.224
		S93.481,44.688,82.879,44.688z"/>
</g>
<g>
</g>
<g>
</g>
<g>
</g>
<g>
</g>
<g>
</g>
<g>
</g>
<g>
</g>
<g>
</g>
<g>
</g>
<g>
</g>
<g>
</g>
<g>
</g>
<g>
</g>
<g>
</g>
<g>
</g>
</svg>
