<?xml version="1.0" encoding="iso-8859-1"?>
<!-- Generator: Adobe Illustrator 19.0.0, SVG Export Plug-In . SVG Version: 6.00 Build 0)  -->
<svg version="1.1" id="Capa_1" xmlns="http://www.w3.org/2000/svg" xmlns:xlink="http://www.w3.org/1999/xlink" x="0px" y="0px"
	 viewBox="0 0 511.926 511.926" style="enable-background:new 0 0 511.926 511.926;" xml:space="preserve">
<g>
	<g>
		<path d="M500.866,79.828L432.097,11.06c-17.375-15.766-44.222-14.529-60.074,2.767l-43.989,43.989
			c-4.653,4.532-6.503,11.22-4.84,17.498l-247.88,247.88c-6.279-1.662-12.966,0.188-17.498,4.841l-43.989,43.988
			c-17.296,15.852-18.533,42.7-2.767,60.074l68.769,68.768c17.374,15.766,44.222,14.529,60.074-2.767l43.989-43.989
			c4.834-4.685,6.642-11.68,4.683-18.121l247.414-247.414c6.441,1.959,13.436,0.151,18.121-4.683l43.989-43.989
			C515.395,124.051,516.632,97.203,500.866,79.828z M351.919,96.89l0.088-0.088c0.327-0.433,0.681-0.846,1.059-1.236l12.712-12.712
			c0.242-0.233,0.509-0.44,0.794-0.618c-0.001-0.024,0.009-0.046,0.025-0.063c0.017-0.017,0.039-0.026,0.063-0.025l0.441-0.441
			c3.603-2.299,8.326-1.746,11.299,1.324c3.135,3.071,3.476,8.002,0.794,11.476c-0.088,0.088-0.088,0.177-0.177,0.177
			c-0.178,0.286-0.385,0.552-0.618,0.794l-12.712,12.712c-0.393,0.375-0.805,0.728-1.236,1.059c-0.088,0-0.088,0-0.088,0.088
			c-3.565,2.264-8.225,1.751-11.211-1.236S349.655,100.455,351.919,96.89z M390.937,107.925c0.272-0.262,0.568-0.498,0.883-0.706
			c0.124-0.144,0.274-0.263,0.441-0.353c1.467-0.971,3.185-1.492,4.943-1.501c2.394,0.052,4.673,1.033,6.356,2.737
			c2.94,3.017,3.416,7.661,1.148,11.211c-0.088,0.088-0.177,0.265-0.353,0.353c-0.21,0.365-0.478,0.693-0.794,0.971l-12.712,12.712
			h-0.088c-0.13,0.218-0.312,0.4-0.53,0.53c-0.177,0.177-0.441,0.353-0.618,0.53c-0.088,0-0.088,0-0.088,0.088
			c-2.784,1.779-6.315,1.903-9.216,0.324c-2.902-1.579-4.714-4.612-4.731-7.916c0.009-1.731,0.531-3.421,1.501-4.855
			c0.09-0.167,0.209-0.317,0.353-0.441c0.088-0.088,0.088-0.177,0.265-0.265c0.095-0.239,0.246-0.451,0.441-0.618L390.937,107.925z
			 M358.01,128.316c0.085,3.533,0.96,7.001,2.56,10.152L138.468,360.57c-3.156-1.499-6.575-2.368-10.063-2.56
			c-0.158-3.505-1.061-6.935-2.648-10.063l222.19-222.19C351.073,127.336,354.508,128.21,358.01,128.316z M135.908,384.581
			c-0.048,1.701-0.502,3.366-1.324,4.855c-0.024,0-0.046,0.009-0.063,0.025s-0.026,0.039-0.025,0.063
			c-0.357,0.463-0.74,0.905-1.148,1.324l-12.712,12.712c-0.419,0.407-0.861,0.791-1.324,1.148
			c-3.636,2.286-8.373,1.735-11.388-1.324c-2.935-2.984-3.411-7.603-1.148-11.123c0.357-0.463,0.74-0.905,1.148-1.324l12.8-12.712
			h0.088l0.088-0.088c0.128-0.197,0.313-0.35,0.53-0.441l0.618-0.618c1.434-0.97,3.124-1.492,4.855-1.501
			c2.42,0.05,4.728,1.03,6.444,2.737C135.009,379.974,135.931,382.233,135.908,384.581z M334.278,89.196l1.144,1.144l-0.01,0.018
			c-3.487,7.284-3.487,15.756,0,23.04L113.309,335.5c-7.287-3.258-15.615-3.264-22.906-0.015l-1.207-1.207L334.278,89.196z
			 M81.53,367.367l0.088-0.088c0.048-0.048,0.079-0.11,0.088-0.177c0.357-0.463,0.74-0.905,1.148-1.324l12.712-12.712
			c0.419-0.408,0.861-0.791,1.324-1.148c3.573-2.424,8.384-1.861,11.299,1.324c1.668,1.626,2.621,3.85,2.648,6.179
			c-0.1,1.744-0.614,3.439-1.501,4.943l-0.353,0.353c-0.088,0.177-0.265,0.353-0.353,0.53l-0.441,0.441l-12.712,12.712
			c-0.393,0.375-0.805,0.728-1.236,1.059c-0.088,0-0.088,0-0.088,0.088c-3.595,2.332-8.341,1.776-11.299-1.324
			c-1.683-1.616-2.638-3.846-2.648-6.179C80.237,370.398,80.693,368.787,81.53,367.367z M120.657,466.286
			c-5.989,6.863-16.373,7.662-23.341,1.795l-53.864-53.864c-5.867-6.968-5.068-17.352,1.795-23.341l17.394-17.394
			c0.754,13.565,11.59,24.392,25.156,25.135c0.375,6.595,3.173,12.82,7.857,17.479c4.605,4.62,10.784,7.332,17.302,7.592
			c0.376,6.595,3.173,12.82,7.857,17.479c4.57,4.674,10.755,7.421,17.287,7.678L120.657,466.286z M159.742,414.507
			c-0.048,0.048-0.079,0.11-0.088,0.177c-0.357,0.463-0.74,0.905-1.148,1.324l-12.712,12.712c-1.694,1.692-3.999,2.628-6.393,2.595
			c-2.394-0.033-4.673-1.033-6.319-2.771c-2.93-2.951-3.408-7.544-1.148-11.034c0.066-0.182,0.19-0.337,0.353-0.441
			c0.088-0.177,0.265-0.353,0.353-0.53l0.441-0.441l12.712-12.8l1.324-1.059c0.024,0,0.046-0.009,0.063-0.025
			c0.017-0.017,0.026-0.039,0.025-0.063c3.603-2.3,8.326-1.746,11.299,1.324c1.681,1.647,2.608,3.915,2.56,6.268
			C160.851,411.383,160.405,412.988,159.742,414.507z M163.538,385.817c-3.121-1.606-6.556-2.51-10.063-2.648
			c-0.085-3.504-0.96-6.944-2.56-10.063l222.19-222.19c3.127,1.579,6.562,2.453,10.063,2.56c0.181,3.519,1.051,6.968,2.56,10.152
			l-222.102,222.19H163.538z M177.259,422.34l-1.196-1.195l0.01-0.018c3.459-7.236,3.427-15.655-0.088-22.863l222.19-222.19
			c3.597,1.767,7.556,2.674,11.564,2.648c3.95,0.015,7.849-0.892,11.388-2.648l0.018-0.01l1.195,1.195L177.259,422.34z
			 M429.955,144.295c-0.088,0-0.088,0.088-0.088,0.177c-0.27,0.345-0.565,0.67-0.883,0.971c0,0.088-0.177,0.265-0.265,0.353
			l-12.712,12.712c-0.419,0.408-0.861,0.791-1.324,1.148c-0.088,0-0.177,0-0.177,0.088c-3.627,2.116-8.222,1.537-11.211-1.412
			c-2.852-2.9-3.396-7.357-1.324-10.858c0.088-0.088,0.177-0.177,0.177-0.265c0.069-0.158,0.195-0.284,0.353-0.353
			c0.207-0.393,0.475-0.751,0.794-1.059l12.8-12.712c0.393-0.375,0.806-0.729,1.236-1.06c0.088,0,0.088,0,0.088-0.088l0.265-0.177
			c1.399-0.798,2.98-1.223,4.59-1.236c2.432-0.007,4.76,0.982,6.444,2.737c1.661,1.66,2.584,3.919,2.56,6.268
			C431.29,141.209,430.831,142.86,429.955,144.295z M466.285,120.658l-17.442,17.442c-0.286-6.612-3.097-12.862-7.854-17.463
			c-4.591-4.564-10.743-7.215-17.214-7.415c-0.331-6.683-3.131-13.006-7.857-17.743c-4.646-4.482-10.765-7.118-17.214-7.415
			c-0.365-6.693-3.195-13.014-7.945-17.743c-4.601-4.623-10.763-7.361-17.279-7.677l17.394-17.394
			c5.989-6.863,16.373-7.662,23.341-1.796l53.864,53.864C473.947,104.285,473.148,114.669,466.285,120.658z"/>
	</g>
</g>
<g>
</g>
<g>
</g>
<g>
</g>
<g>
</g>
<g>
</g>
<g>
</g>
<g>
</g>
<g>
</g>
<g>
</g>
<g>
</g>
<g>
</g>
<g>
</g>
<g>
</g>
<g>
</g>
<g>
</g>
</svg>
